<svg width="24" height="24" viewBox="0 0 24 24" fill="none" xmlns="http://www.w3.org/2000/svg">
<circle cx="12" cy="12" r="9" fill="#6A961F"/>
<path d="M12.0002 19.2597C7.99065 19.2597 4.74023 16.0093 4.74023 11.9997C4.74023 7.99016 7.99065 4.73975 12.0002 4.73975C16.0098 4.73975 19.2602 7.99016 19.2602 11.9997C19.2602 16.0093 16.0098 19.2597 12.0002 19.2597ZM9.6506 12.162L11.0906 13.512L14.0466 9.71138C14.2501 9.44981 14.627 9.40269 14.8886 9.60614C15.1502 9.80958 15.1973 10.1865 14.9938 10.4481L11.6338 14.7681C11.417 15.0469 11.0075 15.079 10.7499 14.8375L8.82987 13.0375C8.58812 12.8108 8.57587 12.4311 8.80251 12.1894C9.02915 11.9476 9.40885 11.9354 9.6506 12.162ZM12.0002 18.1797C15.4134 18.1797 18.1802 15.4129 18.1802 11.9997C18.1802 8.58663 15.4134 5.81975 12.0002 5.81975C8.58711 5.81975 5.82023 8.58663 5.82023 11.9997C5.82023 15.4129 8.58711 18.1797 12.0002 18.1797Z" fill="white"/>
</svg>
